M48
; DRILL file {KiCad (5.1.12)-1} date 12/08/21 14:13:13
; FORMAT={-:-/ absolute / inch / decimal}
; #@! TF.CreationDate,2021-12-08T14:13:13+05:30
; #@! TF.GenerationSoftware,Kicad,Pcbnew,(5.1.12)-1
; #@! TF.FileFunction,Plated,1,2,PTH
FMAT,2
INCH
T1C0.0354
T2C0.0402
T3C0.0591
%
G90
G05
T1
X3.22Y-4.4
X3.32Y-4.4
T2
X2.93Y-2.19
X2.93Y-2.29
X2.93Y-2.39
X2.93Y-2.49
X2.93Y-2.59
X2.93Y-2.69
X2.93Y-2.79
X2.93Y-2.89
X2.93Y-2.99
X2.93Y-3.09
X2.93Y-3.19
X2.93Y-3.29
X2.93Y-3.39
X2.93Y-3.49
X2.93Y-3.59
X2.93Y-3.69
X2.93Y-3.79
X2.93Y-3.89
X2.93Y-3.99
X2.93Y-4.09
X3.18Y-4.0809
X3.28Y-4.0809
X3.38Y-4.0809
X3.63Y-2.19
X3.63Y-2.29
X3.63Y-2.39
X3.63Y-2.49
X3.63Y-2.59
X3.63Y-2.69
X3.63Y-2.79
X3.63Y-2.89
X3.63Y-2.99
X3.63Y-3.09
X3.63Y-3.19
X3.63Y-3.29
X3.63Y-3.39
X3.63Y-3.49
X3.63Y-3.59
X3.63Y-3.69
X3.63Y-3.79
X3.63Y-3.89
X3.63Y-3.99
X3.63Y-4.09
T3
X4.05Y-2.5
X4.05Y-3.3
X4.05Y-4.1
X4.3Y-2.4
X4.3Y-3.2
X4.3Y-4.0
X4.85Y-2.35
X4.85Y-3.15
X4.85Y-3.95
X5.1Y-2.25
X5.1Y-3.05
X5.1Y-3.85
X5.65Y-2.5
X5.65Y-3.3
X5.65Y-4.1
X5.9Y-2.4
X5.9Y-3.2
X5.9Y-4.0
T0
M30
