%TF.GenerationSoftware,KiCad,Pcbnew,(5.1.12)-1*%
%TF.CreationDate,2021-12-08T14:13:04+05:30*%
%TF.ProjectId,macropad,6d616372-6f70-4616-942e-6b696361645f,rev?*%
%TF.SameCoordinates,Original*%
%TF.FileFunction,Soldermask,Bot*%
%TF.FilePolarity,Negative*%
%FSLAX46Y46*%
G04 Gerber Fmt 4.6, Leading zero omitted, Abs format (unit mm)*
G04 Created by KiCad (PCBNEW (5.1.12)-1) date 2021-12-08 14:13:04*
%MOMM*%
%LPD*%
G01*
G04 APERTURE LIST*
%ADD10C,2.100000*%
%ADD11R,1.800000X1.800000*%
%ADD12C,1.800000*%
%ADD13C,2.200000*%
%ADD14C,4.000000*%
%ADD15C,1.700000*%
%ADD16O,1.700000X1.700000*%
%ADD17R,1.700000X1.700000*%
%ADD18R,3.500000X1.700000*%
%ADD19O,1.800000X1.800000*%
%ADD20O,1.500000X1.500000*%
%ADD21R,1.700000X3.500000*%
G04 APERTURE END LIST*
D10*
%TO.C,REF\u002A\u002A*%
X137160000Y-77724000D03*
%TD*%
%TO.C,REF\u002A\u002A*%
X68580000Y-56388000D03*
%TD*%
%TO.C,REF\u002A\u002A*%
X156464000Y-113792000D03*
%TD*%
%TO.C,REF\u002A\u002A*%
X156464000Y-56896000D03*
%TD*%
%TO.C,REF\u002A\u002A*%
X68580000Y-114300000D03*
%TD*%
D11*
%TO.C,D1*%
X81788000Y-111760000D03*
D12*
X84328000Y-111760000D03*
%TD*%
D13*
%TO.C,SW1*%
X109220000Y-60960000D03*
X102870000Y-63500000D03*
D14*
X106680000Y-66040000D03*
D15*
X101600000Y-66040000D03*
X111760000Y-66040000D03*
%TD*%
%TO.C,SW2*%
X132080000Y-62230000D03*
X121920000Y-62230000D03*
D14*
X127000000Y-62230000D03*
D13*
X123190000Y-59690000D03*
X129540000Y-57150000D03*
%TD*%
%TO.C,SW3*%
X149860000Y-60960000D03*
X143510000Y-63500000D03*
D14*
X147320000Y-66040000D03*
D15*
X142240000Y-66040000D03*
X152400000Y-66040000D03*
%TD*%
%TO.C,SW4*%
X111760000Y-86360000D03*
X101600000Y-86360000D03*
D14*
X106680000Y-86360000D03*
D13*
X102870000Y-83820000D03*
X109220000Y-81280000D03*
%TD*%
%TO.C,SW5*%
X129540000Y-77470000D03*
X123190000Y-80010000D03*
D14*
X127000000Y-82550000D03*
D15*
X121920000Y-82550000D03*
X132080000Y-82550000D03*
%TD*%
%TO.C,SW6*%
X152400000Y-86360000D03*
X142240000Y-86360000D03*
D14*
X147320000Y-86360000D03*
D13*
X143510000Y-83820000D03*
X149860000Y-81280000D03*
%TD*%
%TO.C,SW7*%
X109220000Y-101600000D03*
X102870000Y-104140000D03*
D14*
X106680000Y-106680000D03*
D15*
X101600000Y-106680000D03*
X111760000Y-106680000D03*
%TD*%
%TO.C,SW8*%
X132080000Y-102870000D03*
X121920000Y-102870000D03*
D14*
X127000000Y-102870000D03*
D13*
X123190000Y-100330000D03*
X129540000Y-97790000D03*
%TD*%
%TO.C,SW9*%
X149860000Y-101600000D03*
X143510000Y-104140000D03*
D14*
X147320000Y-106680000D03*
D15*
X142240000Y-106680000D03*
X152400000Y-106680000D03*
%TD*%
D16*
%TO.C,U1*%
X92202000Y-55626000D03*
X92202000Y-58166000D03*
D17*
X92202000Y-60706000D03*
D16*
X92202000Y-63246000D03*
X92202000Y-65786000D03*
X92202000Y-68326000D03*
X92202000Y-70866000D03*
D17*
X92202000Y-73406000D03*
D16*
X92202000Y-75946000D03*
X92202000Y-78486000D03*
X92202000Y-81026000D03*
X92202000Y-83566000D03*
D17*
X92202000Y-86106000D03*
D16*
X92202000Y-88646000D03*
X92202000Y-91186000D03*
X92202000Y-93726000D03*
X92202000Y-96266000D03*
D17*
X92202000Y-98806000D03*
D16*
X92202000Y-101346000D03*
X92202000Y-103886000D03*
X74422000Y-103886000D03*
X74422000Y-101346000D03*
D17*
X74422000Y-98806000D03*
D16*
X74422000Y-96266000D03*
X74422000Y-93726000D03*
X74422000Y-91186000D03*
X74422000Y-88646000D03*
D17*
X74422000Y-86106000D03*
D16*
X74422000Y-83566000D03*
X74422000Y-81026000D03*
X74422000Y-78486000D03*
X74422000Y-75946000D03*
D17*
X74422000Y-73406000D03*
D16*
X74422000Y-70866000D03*
X74422000Y-68326000D03*
X74422000Y-65786000D03*
X74422000Y-63246000D03*
D17*
X74422000Y-60706000D03*
D16*
X74422000Y-58166000D03*
X74422000Y-55626000D03*
D18*
X93102000Y-55626000D03*
X93102000Y-58166000D03*
X93102000Y-60706000D03*
X93102000Y-63246000D03*
X93102000Y-65786000D03*
X93102000Y-68326000D03*
X93102000Y-70866000D03*
X93102000Y-73406000D03*
X93102000Y-75946000D03*
X93102000Y-78486000D03*
X93102000Y-81026000D03*
X93102000Y-83566000D03*
X93102000Y-86106000D03*
X93102000Y-88646000D03*
X93102000Y-91186000D03*
X93102000Y-93726000D03*
X93102000Y-96266000D03*
X93102000Y-98806000D03*
X93102000Y-101346000D03*
X93102000Y-103886000D03*
X73522000Y-55626000D03*
X73522000Y-58166000D03*
X73522000Y-60706000D03*
X73522000Y-63246000D03*
X73522000Y-65786000D03*
X73522000Y-68326000D03*
X73522000Y-70866000D03*
X73522000Y-73406000D03*
X73522000Y-75946000D03*
X73522000Y-78486000D03*
X73522000Y-81026000D03*
X73522000Y-83566000D03*
X73522000Y-86106000D03*
X73522000Y-88646000D03*
X73522000Y-91186000D03*
X73522000Y-93726000D03*
X73522000Y-96266000D03*
X73522000Y-98806000D03*
X73522000Y-101346000D03*
X73522000Y-103886000D03*
D19*
X86037000Y-55756000D03*
X80587000Y-55756000D03*
D20*
X85737000Y-58786000D03*
X80887000Y-58786000D03*
D21*
X85852000Y-104556000D03*
D16*
X85852000Y-103656000D03*
D21*
X83312000Y-104556000D03*
D17*
X83312000Y-103656000D03*
D21*
X80772000Y-104556000D03*
D16*
X80772000Y-103656000D03*
%TD*%
M02*
