%TF.GenerationSoftware,KiCad,Pcbnew,(5.1.12)-1*%
%TF.CreationDate,2021-12-08T14:13:04+05:30*%
%TF.ProjectId,macropad,6d616372-6f70-4616-942e-6b696361645f,rev?*%
%TF.SameCoordinates,Original*%
%TF.FileFunction,Copper,L1,Top*%
%TF.FilePolarity,Positive*%
%FSLAX46Y46*%
G04 Gerber Fmt 4.6, Leading zero omitted, Abs format (unit mm)*
G04 Created by KiCad (PCBNEW (5.1.12)-1) date 2021-12-08 14:13:04*
%MOMM*%
%LPD*%
G01*
G04 APERTURE LIST*
%TA.AperFunction,ComponentPad*%
%ADD10R,1.800000X1.800000*%
%TD*%
%TA.AperFunction,ComponentPad*%
%ADD11C,1.800000*%
%TD*%
%TA.AperFunction,ComponentPad*%
%ADD12C,2.200000*%
%TD*%
%TA.AperFunction,ComponentPad*%
%ADD13O,1.700000X1.700000*%
%TD*%
%TA.AperFunction,ComponentPad*%
%ADD14R,1.700000X1.700000*%
%TD*%
%TA.AperFunction,Conductor*%
%ADD15C,0.250000*%
%TD*%
G04 APERTURE END LIST*
D10*
%TO.P,D1,1*%
%TO.N,Net-(D1-Pad1)*%
X81788000Y-111760000D03*
D11*
%TO.P,D1,2*%
%TO.N,Net-(D1-Pad2)*%
X84328000Y-111760000D03*
%TD*%
D12*
%TO.P,SW1,1*%
%TO.N,Net-(SW1-Pad1)*%
X109220000Y-60960000D03*
%TO.P,SW1,2*%
%TO.N,Net-(SW1-Pad2)*%
X102870000Y-63500000D03*
%TD*%
%TO.P,SW2,2*%
%TO.N,Net-(SW2-Pad2)*%
X123190000Y-59690000D03*
%TO.P,SW2,1*%
%TO.N,Net-(SW1-Pad1)*%
X129540000Y-57150000D03*
%TD*%
%TO.P,SW3,1*%
%TO.N,Net-(SW1-Pad1)*%
X149860000Y-60960000D03*
%TO.P,SW3,2*%
%TO.N,Net-(SW3-Pad2)*%
X143510000Y-63500000D03*
%TD*%
%TO.P,SW4,2*%
%TO.N,Net-(SW4-Pad2)*%
X102870000Y-83820000D03*
%TO.P,SW4,1*%
%TO.N,Net-(SW1-Pad1)*%
X109220000Y-81280000D03*
%TD*%
%TO.P,SW5,1*%
%TO.N,Net-(SW1-Pad1)*%
X129540000Y-77470000D03*
%TO.P,SW5,2*%
%TO.N,Net-(SW5-Pad2)*%
X123190000Y-80010000D03*
%TD*%
%TO.P,SW6,2*%
%TO.N,Net-(SW6-Pad2)*%
X143510000Y-83820000D03*
%TO.P,SW6,1*%
%TO.N,Net-(SW1-Pad1)*%
X149860000Y-81280000D03*
%TD*%
%TO.P,SW7,1*%
%TO.N,Net-(SW1-Pad1)*%
X109220000Y-101600000D03*
%TO.P,SW7,2*%
%TO.N,Net-(SW7-Pad2)*%
X102870000Y-104140000D03*
%TD*%
%TO.P,SW8,2*%
%TO.N,Net-(SW8-Pad2)*%
X123190000Y-100330000D03*
%TO.P,SW8,1*%
%TO.N,Net-(SW1-Pad1)*%
X129540000Y-97790000D03*
%TD*%
%TO.P,SW9,1*%
%TO.N,Net-(SW1-Pad1)*%
X149860000Y-101600000D03*
%TO.P,SW9,2*%
%TO.N,Net-(SW9-Pad2)*%
X143510000Y-104140000D03*
%TD*%
D13*
%TO.P,U1,1*%
%TO.N,Net-(SW1-Pad2)*%
X92202000Y-55626000D03*
%TO.P,U1,2*%
%TO.N,Net-(SW4-Pad2)*%
X92202000Y-58166000D03*
D14*
%TO.P,U1,3*%
%TO.N,Net-(U1-Pad3)*%
X92202000Y-60706000D03*
D13*
%TO.P,U1,4*%
%TO.N,Net-(SW7-Pad2)*%
X92202000Y-63246000D03*
%TO.P,U1,5*%
%TO.N,Net-(SW2-Pad2)*%
X92202000Y-65786000D03*
%TO.P,U1,6*%
%TO.N,Net-(SW5-Pad2)*%
X92202000Y-68326000D03*
%TO.P,U1,7*%
%TO.N,Net-(SW8-Pad2)*%
X92202000Y-70866000D03*
D14*
%TO.P,U1,8*%
%TO.N,Net-(U1-Pad8)*%
X92202000Y-73406000D03*
D13*
%TO.P,U1,9*%
%TO.N,Net-(SW3-Pad2)*%
X92202000Y-75946000D03*
%TO.P,U1,10*%
%TO.N,Net-(SW6-Pad2)*%
X92202000Y-78486000D03*
%TO.P,U1,11*%
%TO.N,Net-(SW9-Pad2)*%
X92202000Y-81026000D03*
%TO.P,U1,12*%
%TO.N,Net-(U1-Pad12)*%
X92202000Y-83566000D03*
D14*
%TO.P,U1,13*%
%TO.N,Net-(U1-Pad13)*%
X92202000Y-86106000D03*
D13*
%TO.P,U1,14*%
%TO.N,Net-(U1-Pad14)*%
X92202000Y-88646000D03*
%TO.P,U1,15*%
%TO.N,Net-(U1-Pad15)*%
X92202000Y-91186000D03*
%TO.P,U1,16*%
%TO.N,Net-(U1-Pad16)*%
X92202000Y-93726000D03*
%TO.P,U1,17*%
%TO.N,Net-(U1-Pad17)*%
X92202000Y-96266000D03*
D14*
%TO.P,U1,18*%
%TO.N,Net-(U1-Pad18)*%
X92202000Y-98806000D03*
D13*
%TO.P,U1,19*%
%TO.N,Net-(U1-Pad19)*%
X92202000Y-101346000D03*
%TO.P,U1,20*%
%TO.N,Net-(U1-Pad20)*%
X92202000Y-103886000D03*
%TO.P,U1,21*%
%TO.N,Net-(D1-Pad2)*%
X74422000Y-103886000D03*
%TO.P,U1,22*%
%TO.N,Net-(U1-Pad22)*%
X74422000Y-101346000D03*
D14*
%TO.P,U1,23*%
%TO.N,Net-(D1-Pad1)*%
X74422000Y-98806000D03*
D13*
%TO.P,U1,24*%
%TO.N,Net-(U1-Pad24)*%
X74422000Y-96266000D03*
%TO.P,U1,25*%
%TO.N,Net-(U1-Pad25)*%
X74422000Y-93726000D03*
%TO.P,U1,26*%
%TO.N,Net-(U1-Pad26)*%
X74422000Y-91186000D03*
%TO.P,U1,27*%
%TO.N,Net-(U1-Pad27)*%
X74422000Y-88646000D03*
D14*
%TO.P,U1,28*%
%TO.N,Net-(U1-Pad28)*%
X74422000Y-86106000D03*
D13*
%TO.P,U1,29*%
%TO.N,Net-(U1-Pad29)*%
X74422000Y-83566000D03*
%TO.P,U1,30*%
%TO.N,Net-(U1-Pad30)*%
X74422000Y-81026000D03*
%TO.P,U1,31*%
%TO.N,Net-(U1-Pad31)*%
X74422000Y-78486000D03*
%TO.P,U1,32*%
%TO.N,Net-(U1-Pad32)*%
X74422000Y-75946000D03*
D14*
%TO.P,U1,33*%
%TO.N,Net-(U1-Pad33)*%
X74422000Y-73406000D03*
D13*
%TO.P,U1,34*%
%TO.N,Net-(U1-Pad34)*%
X74422000Y-70866000D03*
%TO.P,U1,35*%
%TO.N,Net-(U1-Pad35)*%
X74422000Y-68326000D03*
%TO.P,U1,36*%
%TO.N,Net-(SW1-Pad1)*%
X74422000Y-65786000D03*
%TO.P,U1,37*%
%TO.N,Net-(U1-Pad37)*%
X74422000Y-63246000D03*
D14*
%TO.P,U1,38*%
%TO.N,Net-(U1-Pad38)*%
X74422000Y-60706000D03*
D13*
%TO.P,U1,39*%
%TO.N,Net-(U1-Pad39)*%
X74422000Y-58166000D03*
%TO.P,U1,40*%
%TO.N,Net-(U1-Pad40)*%
X74422000Y-55626000D03*
%TO.P,U1,41*%
%TO.N,Net-(U1-Pad41)*%
X85852000Y-103656000D03*
D14*
%TO.P,U1,42*%
%TO.N,Net-(U1-Pad42)*%
X83312000Y-103656000D03*
D13*
%TO.P,U1,43*%
%TO.N,Net-(U1-Pad43)*%
X80772000Y-103656000D03*
%TD*%
D15*
%TO.N,Net-(D1-Pad2)*%
X74422000Y-103886000D02*
X76047200Y-105511200D01*
X76047200Y-105511200D02*
X78079200Y-105511200D01*
X78079200Y-105511200D02*
X84328000Y-111760000D01*
%TO.N,Net-(SW1-Pad1)*%
X129540000Y-97790000D02*
X133350000Y-101600000D01*
X133350000Y-101600000D02*
X149860000Y-101600000D01*
X129540000Y-97790000D02*
X109670100Y-97790000D01*
X129540000Y-77470000D02*
X129540000Y-97790000D01*
X129540000Y-77470000D02*
X129540000Y-57150000D01*
X109220000Y-60960000D02*
X109220000Y-81280000D01*
X109220000Y-81280000D02*
X109220000Y-97339900D01*
X109220000Y-97339900D02*
X109670100Y-97790000D01*
X109670100Y-97790000D02*
X109220000Y-98240100D01*
X109220000Y-98240100D02*
X109220000Y-101600000D01*
%TO.N,Net-(SW1-Pad2)*%
X92202000Y-55626000D02*
X94996000Y-55626000D01*
X94996000Y-55626000D02*
X102870000Y-63500000D01*
%TO.N,Net-(SW4-Pad2)*%
X92202000Y-58166000D02*
X96634300Y-62598300D01*
X96634300Y-62598300D02*
X96634300Y-77584300D01*
X96634300Y-77584300D02*
X102870000Y-83820000D01*
%TO.N,Net-(SW7-Pad2)*%
X92202000Y-63246000D02*
X94969700Y-66013700D01*
X94969700Y-66013700D02*
X94969700Y-96239700D01*
X94969700Y-96239700D02*
X102870000Y-104140000D01*
%TD*%
M02*
