M48
; DRILL file {KiCad (5.1.12)-1} date 12/08/21 14:13:13
; FORMAT={-:-/ absolute / inch / decimal}
; #@! TF.CreationDate,2021-12-08T14:13:13+05:30
; #@! TF.GenerationSoftware,Kicad,Pcbnew,(5.1.12)-1
; #@! TF.FileFunction,NonPlated,1,2,NPTH
FMAT,2
INCH
T1C0.0591
T2C0.0669
T3C0.0709
T4C0.0827
T5C0.1575
%
G90
G05
T1
X3.1845Y-2.3144
X3.3755Y-2.3144
T2
X4.0Y-2.6
X4.0Y-3.4
X4.0Y-4.2
X4.4Y-2.6
X4.4Y-3.4
X4.4Y-4.2
X4.8Y-2.45
X4.8Y-3.25
X4.8Y-4.05
X5.2Y-2.45
X5.2Y-3.25
X5.2Y-4.05
X5.6Y-2.6
X5.6Y-3.4
X5.6Y-4.2
X6.0Y-2.6
X6.0Y-3.4
X6.0Y-4.2
T3
X3.1727Y-2.1951
X3.3873Y-2.1951
T4
X2.7Y-2.22
X2.7Y-4.5
X5.4Y-3.06
X6.16Y-2.24
X6.16Y-4.48
T5
X4.2Y-2.6
X4.2Y-3.4
X4.2Y-4.2
X5.0Y-2.45
X5.0Y-3.25
X5.0Y-4.05
X5.8Y-2.6
X5.8Y-3.4
X5.8Y-4.2
T0
M30
